<svg width="16" height="14" viewBox="0 0 16 14" fill="none" xmlns="http://www.w3.org/2000/svg">
<path d="M13.2269 1.90705C12.2394 1.42205 11.1946 1.07744 10.1202 0.882324C9.9864 1.13627 9.83005 1.47782 9.72223 1.74955C8.56387 1.56673 7.41617 1.56673 6.27911 1.74955C6.17134 1.47788 6.01146 1.13627 5.8764 0.882324C4.80099 1.07753 3.75532 1.42302 2.76729 1.90958C0.80117 5.0281 0.26817 8.06906 0.53464 11.067C1.8387 12.0891 3.10246 12.7101 4.34493 13.1164C4.65372 12.6707 4.92668 12.1988 5.16099 11.7056C4.71489 11.5274 4.28483 11.3077 3.87593 11.0492C3.98354 10.9655 4.08861 10.8783 4.19099 10.7876C6.66876 12.004 9.36099 12.004 11.8092 10.7876C11.9121 10.8777 12.0171 10.9649 12.1242 11.0492C11.7147 11.3084 11.2838 11.5285 10.8368 11.7069C11.0725 12.2021 11.3449 12.6744 11.6529 13.1176C12.8965 12.7114 14.1615 12.0904 15.4655 11.067C15.7782 7.59167 14.9314 4.57855 13.2269 1.90699V1.90705ZM5.49858 9.22332C4.75476 9.22332 4.14476 8.49446 4.14476 7.60692C4.14476 6.71939 4.74176 5.98929 5.49858 5.98929C6.25546 5.98929 6.8654 6.71809 6.8524 7.60692C6.85358 8.49446 6.25546 9.22332 5.49858 9.22332ZM10.5016 9.22332C9.75775 9.22332 9.14781 8.49446 9.14781 7.60692C9.14781 6.71939 9.74475 5.98929 10.5016 5.98929C11.2585 5.98929 11.8684 6.71809 11.8554 7.60692C11.8554 8.49446 11.2585 9.22332 10.5016 9.22332Z" fill="white"/>
</svg>
