<svg width="16" height="12" viewBox="0 0 16 12" fill="none" xmlns="http://www.w3.org/2000/svg">
<path d="M15.3337 1.42342C14.7943 1.66396 14.2149 1.82649 13.6058 1.89995C14.2343 1.52145 14.7045 0.925741 14.9287 0.223974C14.3382 0.576974 13.6919 0.825448 13.018 0.958593C12.5648 0.471576 11.9645 0.148773 11.3103 0.0403016C10.6562 -0.06817 9.98471 0.0437586 9.40023 0.35871C8.81574 0.673661 8.35092 1.17401 8.07794 1.78209C7.80495 2.39016 7.73907 3.07193 7.89051 3.72154C6.69404 3.66108 5.52356 3.34809 4.45505 2.80288C3.38653 2.25767 2.44386 1.49244 1.68822 0.556828C1.42984 1.0054 1.28128 1.52549 1.28128 2.07938C1.28099 2.578 1.40299 3.069 1.63647 3.50879C1.86994 3.94858 2.20766 4.32357 2.61966 4.60049C2.14185 4.58519 1.67457 4.45524 1.25673 4.22148V4.26048C1.25669 4.95983 1.49704 5.63765 1.93702 6.17894C2.377 6.72023 2.98951 7.09165 3.6706 7.23017C3.22735 7.3509 2.76263 7.36869 2.31155 7.28218C2.50371 7.88392 2.87803 8.41013 3.38211 8.78712C3.88618 9.16412 4.49477 9.37303 5.12267 9.38462C4.05677 10.2268 2.74038 10.6836 1.38528 10.6816C1.14523 10.6816 0.905393 10.6675 0.666992 10.6393C2.0425 11.5294 3.64369 12.0018 5.27899 12C10.8147 12 13.8409 7.38554 13.8409 3.38349C13.8409 3.25347 13.8377 3.12215 13.8319 2.99213C14.4205 2.56369 14.9286 2.03315 15.3324 1.42537L15.3337 1.42342Z" fill="white"/>
</svg>
